<svg width="1080" height="1920" viewBox="0 0 1080 1920" fill="none" xmlns="http://www.w3.org/2000/svg">
<path d="M2400.8 1946.19C2167.62 2348.68 2080.24 2022.28 1677.75 1789.1C1275.25 1555.92 710.056 1504.28 943.232 1101.78C1176.41 699.287 1691.72 562.026 2094.22 795.202C2496.71 1028.38 2633.97 1543.69 2400.8 1946.19Z" fill="white" fill-opacity="0.05"/>
<path opacity="0.1" d="M1959.18 1505.72C1808.78 1765.34 1752.41 1554.8 1492.8 1404.4C1233.19 1254 868.63 1220.69 1019.03 961.072C1169.43 701.459 1501.81 612.924 1761.43 763.325C2021.04 913.726 2109.58 1246.11 1959.18 1505.72Z" fill="white"/>
<path d="M2007.39 1557.05C1873.98 1846.97 1793.32 1629.63 1503.41 1496.22C1213.5 1362.81 824.112 1363.85 957.521 1073.94C1090.93 784.022 1434.1 657.15 1724.02 790.559C2013.93 923.969 2140.8 1267.14 2007.39 1557.05Z" fill="white" fill-opacity="0.2"/>
<path d="M311.798 189.188C78.622 591.683 -8.75677 265.275 -411.252 32.0992C-813.748 -201.077 -1378.94 -252.721 -1145.77 -655.217C-912.592 -1057.71 -397.278 -1194.97 5.21749 -961.798C407.713 -728.622 544.974 -213.308 311.798 189.188Z" fill="white" fill-opacity="0.05"/>
<path opacity="0.1" d="M198.176 8.72188C47.775 268.336 -8.58524 57.7991 -268.199 -92.6018C-527.813 -243.003 -892.37 -276.314 -741.969 -535.928C-591.568 -795.541 -259.186 -884.076 0.428279 -733.675C260.042 -583.274 348.577 -250.892 198.176 8.72188Z" fill="white"/>
<path d="M226.393 100.055C92.984 389.969 12.3235 172.626 -277.591 39.2167C-567.505 -94.1928 -956.888 -93.1496 -823.479 -383.064C-690.069 -672.978 -346.898 -799.85 -56.9835 -666.441C232.931 -533.031 359.803 -189.86 226.393 100.055Z" fill="white" fill-opacity="0.2"/>
<path d="M452.798 2582.19C219.622 2984.68 132.243 2658.28 -270.252 2425.1C-672.748 2191.92 -1237.94 2140.28 -1004.77 1737.78C-771.592 1335.29 -256.278 1198.03 146.217 1431.2C548.713 1664.38 685.974 2179.69 452.798 2582.19Z" fill="white" fill-opacity="0.05"/>
<path opacity="0.1" d="M339.176 2401.72C188.775 2661.34 132.415 2450.8 -127.199 2300.4C-386.813 2150 -751.37 2116.69 -600.969 1857.07C-450.568 1597.46 -118.186 1508.92 141.428 1659.32C401.042 1809.73 489.577 2142.11 339.176 2401.72Z" fill="white"/>
<path d="M367.393 2493.05C233.984 2782.97 153.323 2565.63 -136.591 2432.22C-426.505 2298.81 -815.888 2299.85 -682.479 2009.94C-549.069 1720.02 -205.898 1593.15 84.0165 1726.56C373.931 1859.97 500.803 2203.14 367.393 2493.05Z" fill="white" fill-opacity="0.2"/>
<path fill-rule="evenodd" clip-rule="evenodd" d="M511.725 1044.66C511.059 1044.47 510.51 1043.91 510.314 1043.24C510.275 1043.08 510.157 1043 510 1043C509.843 1043 509.725 1043.08 509.686 1043.24C509.49 1043.91 508.941 1044.47 508.235 1044.66C508.078 1044.7 508 1044.86 508 1044.98C508 1045.14 508.078 1045.26 508.235 1045.3C508.941 1045.5 509.49 1046.05 509.686 1046.76C509.725 1046.92 509.843 1047 510 1047C510.157 1047 510.275 1046.92 510.314 1046.76C510.51 1046.05 511.059 1045.53 511.765 1045.3C511.922 1045.26 512 1045.14 512 1044.98C511.961 1044.86 511.882 1044.7 511.725 1044.66Z" fill="#FFFDF5"/>
<path fill-rule="evenodd" clip-rule="evenodd" d="M204.765 1427.51C201.765 1428.41 199.294 1430.9 198.412 1433.93C198.235 1434.64 197.706 1435 197 1435C196.294 1435 195.765 1434.64 195.588 1433.93C194.706 1430.9 192.235 1428.41 189.059 1427.51C188.353 1427.34 188 1426.62 188 1426.09C188 1425.38 188.353 1424.84 189.059 1424.66C192.235 1423.77 194.706 1421.28 195.588 1418.07C195.765 1417.36 196.294 1417 197 1417C197.706 1417 198.235 1417.36 198.412 1418.07C199.294 1421.28 201.765 1423.59 204.941 1424.66C205.647 1424.84 206 1425.38 206 1426.09C205.824 1426.62 205.471 1427.34 204.765 1427.51Z" fill="#FFFDF5"/>
<path fill-rule="evenodd" clip-rule="evenodd" d="M898.765 1419.51C895.765 1420.41 893.294 1422.9 892.412 1425.93C892.235 1426.64 891.706 1427 891 1427C890.294 1427 889.765 1426.64 889.588 1425.93C888.706 1422.9 886.235 1420.41 883.059 1419.51C882.353 1419.34 882 1418.62 882 1418.09C882 1417.38 882.353 1416.84 883.059 1416.66C886.235 1415.77 888.706 1413.28 889.588 1410.07C889.765 1409.36 890.294 1409 891 1409C891.706 1409 892.235 1409.36 892.412 1410.07C893.294 1413.28 895.765 1415.59 898.941 1416.66C899.647 1416.84 900 1417.38 900 1418.09C899.824 1418.62 899.471 1419.34 898.765 1419.51Z" fill="#FFFDF5"/>
<path fill-rule="evenodd" clip-rule="evenodd" d="M1032.76 923.515C1029.76 924.406 1027.29 926.901 1026.41 929.931C1026.24 930.644 1025.71 931 1025 931C1024.29 931 1023.76 930.644 1023.59 929.931C1022.71 926.901 1020.24 924.406 1017.06 923.515C1016.35 923.337 1016 922.624 1016 922.089C1016 921.376 1016.35 920.842 1017.06 920.663C1020.24 919.772 1022.71 917.277 1023.59 914.069C1023.76 913.356 1024.29 913 1025 913C1025.71 913 1026.24 913.356 1026.41 914.069C1027.29 917.277 1029.76 919.594 1032.94 920.663C1033.65 920.842 1034 921.376 1034 922.089C1033.82 922.624 1033.47 923.337 1032.76 923.515Z" fill="#FFFDF5"/>
<path fill-rule="evenodd" clip-rule="evenodd" d="M98.3824 1251.26C96.8824 1251.7 95.6471 1252.95 95.2059 1254.47C95.1176 1254.82 94.8529 1255 94.5 1255C94.1471 1255 93.8824 1254.82 93.7941 1254.47C93.3529 1252.95 92.1176 1251.7 90.5294 1251.26C90.1765 1251.17 90 1250.81 90 1250.54C90 1250.19 90.1765 1249.92 90.5294 1249.83C92.1176 1249.39 93.3529 1248.14 93.7941 1246.53C93.8824 1246.18 94.1471 1246 94.5 1246C94.8529 1246 95.1176 1246.18 95.2059 1246.53C95.6471 1248.14 96.8824 1249.3 98.4706 1249.83C98.8235 1249.92 99 1250.19 99 1250.54C98.9118 1250.81 98.7353 1251.17 98.3824 1251.26Z" fill="#FFFDF5"/>
<path fill-rule="evenodd" clip-rule="evenodd" d="M45.3824 1486.26C43.8824 1486.7 42.6471 1487.95 42.2059 1489.47C42.1176 1489.82 41.8529 1490 41.5 1490C41.1471 1490 40.8824 1489.82 40.7941 1489.47C40.3529 1487.95 39.1176 1486.7 37.5294 1486.26C37.1765 1486.17 37 1485.81 37 1485.54C37 1485.19 37.1765 1484.92 37.5294 1484.83C39.1176 1484.39 40.3529 1483.14 40.7941 1481.53C40.8824 1481.18 41.1471 1481 41.5 1481C41.8529 1481 42.1176 1481.18 42.2059 1481.53C42.6471 1483.14 43.8824 1484.3 45.4706 1484.83C45.8235 1484.92 46 1485.19 46 1485.54C45.9118 1485.81 45.7353 1486.17 45.3824 1486.26Z" fill="#FFFDF5"/>
<path fill-rule="evenodd" clip-rule="evenodd" d="M957.382 1043.26C955.882 1043.7 954.647 1044.95 954.206 1046.47C954.118 1046.82 953.853 1047 953.5 1047C953.147 1047 952.882 1046.82 952.794 1046.47C952.353 1044.95 951.118 1043.7 949.529 1043.26C949.176 1043.17 949 1042.81 949 1042.54C949 1042.19 949.176 1041.92 949.529 1041.83C951.118 1041.39 952.353 1040.14 952.794 1038.53C952.882 1038.18 953.147 1038 953.5 1038C953.853 1038 954.118 1038.18 954.206 1038.53C954.647 1040.14 955.882 1041.3 957.471 1041.83C957.824 1041.92 958 1042.19 958 1042.54C957.912 1042.81 957.735 1043.17 957.382 1043.26Z" fill="#FFFDF5"/>
<path fill-rule="evenodd" clip-rule="evenodd" d="M299.176 968.01C297.176 968.604 295.529 970.267 294.941 972.287C294.824 972.762 294.471 973 294 973C293.529 973 293.176 972.762 293.059 972.287C292.471 970.267 290.824 968.604 288.706 968.01C288.235 967.891 288 967.416 288 967.059C288 966.584 288.235 966.228 288.706 966.109C290.824 965.515 292.471 963.851 293.059 961.713C293.176 961.238 293.529 961 294 961C294.471 961 294.824 961.238 294.941 961.713C295.529 963.851 297.176 965.396 299.294 966.109C299.765 966.228 300 966.584 300 967.059C299.882 967.416 299.647 967.891 299.176 968.01Z" fill="#FFFDF5"/>
<path fill-rule="evenodd" clip-rule="evenodd" d="M104.588 1004.5C103.588 1004.8 102.765 1005.63 102.471 1006.64C102.412 1006.88 102.235 1007 102 1007C101.765 1007 101.588 1006.88 101.529 1006.64C101.235 1005.63 100.412 1004.8 99.3529 1004.5C99.1176 1004.45 99 1004.21 99 1004.03C99 1003.79 99.1176 1003.61 99.3529 1003.55C100.412 1003.26 101.235 1002.43 101.529 1001.36C101.588 1001.12 101.765 1001 102 1001C102.235 1001 102.412 1001.12 102.471 1001.36C102.765 1002.43 103.588 1003.2 104.647 1003.55C104.882 1003.61 105 1003.79 105 1004.03C104.941 1004.21 104.824 1004.45 104.588 1004.5Z" fill="#FFFDF5"/>
<path fill-rule="evenodd" clip-rule="evenodd" d="M406.451 1205.67C405.118 1206.07 404.02 1207.18 403.627 1208.52C403.549 1208.84 403.314 1209 403 1209C402.686 1209 402.451 1208.84 402.373 1208.52C401.98 1207.18 400.882 1206.07 399.471 1205.67C399.157 1205.59 399 1205.28 399 1205.04C399 1204.72 399.157 1204.49 399.471 1204.41C400.882 1204.01 401.98 1202.9 402.373 1201.48C402.451 1201.16 402.686 1201 403 1201C403.314 1201 403.549 1201.16 403.627 1201.48C404.02 1202.9 405.118 1203.93 406.529 1204.41C406.843 1204.49 407 1204.72 407 1205.04C406.922 1205.28 406.765 1205.59 406.451 1205.67Z" fill="#FFFDF5"/>
<path fill-rule="evenodd" clip-rule="evenodd" d="M220.451 1302.67C219.118 1303.07 218.02 1304.18 217.627 1305.52C217.549 1305.84 217.314 1306 217 1306C216.686 1306 216.451 1305.84 216.373 1305.52C215.98 1304.18 214.882 1303.07 213.471 1302.67C213.157 1302.59 213 1302.28 213 1302.04C213 1301.72 213.157 1301.49 213.471 1301.41C214.882 1301.01 215.98 1299.9 216.373 1298.48C216.451 1298.16 216.686 1298 217 1298C217.314 1298 217.549 1298.16 217.627 1298.48C218.02 1299.9 219.118 1300.93 220.529 1301.41C220.843 1301.49 221 1301.72 221 1302.04C220.922 1302.28 220.765 1302.59 220.451 1302.67Z" fill="#FFFDF5"/>
<path fill-rule="evenodd" clip-rule="evenodd" d="M844.451 984.673C843.118 985.069 842.02 986.178 841.627 987.525C841.549 987.842 841.314 988 841 988C840.686 988 840.451 987.842 840.373 987.525C839.98 986.178 838.882 985.069 837.471 984.673C837.157 984.594 837 984.277 837 984.04C837 983.723 837.157 983.485 837.471 983.406C838.882 983.01 839.98 981.901 840.373 980.475C840.451 980.158 840.686 980 841 980C841.314 980 841.549 980.158 841.627 980.475C842.02 981.901 843.118 982.931 844.529 983.406C844.843 983.485 845 983.723 845 984.04C844.922 984.277 844.765 984.594 844.451 984.673Z" fill="#FFFDF5"/>
</svg>
