<svg width="867" height="308" viewBox="0 0 867 308" fill="none" xmlns="http://www.w3.org/2000/svg">
<path d="M21 40C21 28.9543 29.9543 20 41 20H756C767.046 20 776 28.9543 776 40V196C776 207.046 767.046 216 756 216H41C29.9543 216 21 207.046 21 196V40Z" fill="white"/>
<path opacity="0.2" d="M51 70C51 58.9543 59.9543 50 71 50H786C797.046 50 806 58.9543 806 70V226C806 237.046 797.046 246 786 246H71C59.9543 246 51 237.046 51 226V70Z" fill="white"/>
<path opacity="0.1" d="M81 98C81 86.9543 89.9543 78 101 78H816C827.046 78 836 86.9543 836 98V254C836 265.046 827.046 274 816 274H101C89.9543 274 81 265.046 81 254V98Z" fill="white"/>
<g opacity="0.03" filter="url(#filter0_dd)">
<path d="M111 129C111 117.954 119.954 109 131 109H846C857.046 109 866 117.954 866 129V285C866 296.046 857.046 305 846 305H131C119.954 305 111 296.046 111 285V129Z" fill="white"/>
</g>
<g filter="url(#filter1_dd)">
<path d="M1 20C1 8.95431 9.9543 0 21 0H725C736.046 0 745 8.95431 745 20V166C745 177.046 736.046 186 725 186H21C9.95429 186 1 177.046 1 166V20Z" fill="#F57C00"/>
</g>
<path d="M194.719 66.0293L178.962 101.576C177.025 105.928 175.248 109.084 173.63 111.044C172.012 112.981 170.132 114.405 167.99 115.316C165.871 116.228 163.296 116.684 160.266 116.684C157.622 116.684 155.173 116.342 152.917 115.658V108.31C155.15 109.198 157.486 109.643 159.924 109.643C161.997 109.643 163.729 109.141 165.119 108.139C166.532 107.113 167.808 105.279 168.947 102.636L150.524 66.0293H159.343L171.545 91.083C172.639 93.4528 173.311 95.0365 173.562 95.834H173.903C174.04 95.2415 174.382 94.2959 174.929 92.9971L186.174 66.0293H194.719ZM207.57 78.1973V92.0059C207.57 95.8796 209.576 97.8164 213.586 97.8164C215.523 97.8164 217.414 97.5544 219.26 97.0303C221.105 96.4834 223.088 95.6175 225.207 94.4326V78.1973H233.239V116H225.207V99.9697C222.997 101.337 220.855 102.351 218.781 103.012C216.73 103.65 214.486 103.969 212.048 103.969C208.106 103.969 205.03 102.955 202.819 100.927C200.609 98.876 199.504 96.0163 199.504 92.3477V78.1973H207.57ZM268.376 116L266.77 110.736H266.496C264.673 113.038 262.839 114.61 260.993 115.453C259.147 116.273 256.778 116.684 253.884 116.684C250.17 116.684 247.264 115.681 245.168 113.676C243.094 111.671 242.058 108.834 242.058 105.165C242.058 101.269 243.505 98.3291 246.398 96.3467C249.292 94.3643 253.701 93.2819 259.626 93.0996L266.154 92.8945V90.8779C266.154 88.4626 265.585 86.6624 264.445 85.4775C263.329 84.2699 261.586 83.666 259.216 83.666C257.279 83.666 255.422 83.9508 253.645 84.5205C251.867 85.0902 250.158 85.7624 248.518 86.5371L245.92 80.7949C247.971 79.724 250.215 78.915 252.653 78.3682C255.091 77.7985 257.393 77.5137 259.558 77.5137C264.366 77.5137 267.989 78.5618 270.427 80.6582C272.888 82.7546 274.118 86.0472 274.118 90.5361V116H268.376ZM256.413 110.531C259.33 110.531 261.665 109.722 263.42 108.104C265.197 106.464 266.086 104.174 266.086 101.234V97.9531L261.232 98.1582C257.45 98.2949 254.693 98.9329 252.961 100.072C251.252 101.189 250.397 102.909 250.397 105.233C250.397 106.92 250.899 108.23 251.901 109.164C252.904 110.076 254.408 110.531 256.413 110.531ZM300.573 116.684C294.854 116.684 290.502 115.02 287.517 111.693C284.554 108.344 283.073 103.547 283.073 97.3037C283.073 90.9463 284.623 86.0586 287.722 82.6406C290.843 79.2227 295.344 77.5137 301.223 77.5137C305.21 77.5137 308.799 78.2542 311.989 79.7354L309.562 86.1953C306.167 84.8737 303.365 84.2129 301.154 84.2129C294.615 84.2129 291.345 88.5537 291.345 97.2354C291.345 101.474 292.154 104.664 293.771 106.806C295.412 108.925 297.805 109.984 300.949 109.984C304.527 109.984 307.91 109.096 311.101 107.318V114.325C309.665 115.168 308.127 115.772 306.486 116.137C304.868 116.501 302.897 116.684 300.573 116.684ZM348.391 78.1973V84.4863H336.086V116H328.02V84.4863H315.715V78.1973H348.391ZM388.483 87.8701C388.483 92.3363 385.874 95.0365 380.656 95.9707V96.2441C383.573 96.5859 385.806 97.5088 387.355 99.0127C388.905 100.517 389.68 102.465 389.68 104.857C389.68 108.435 388.312 111.192 385.578 113.129C382.867 115.043 378.913 116 373.718 116H355.671V78.1973H373.649C383.539 78.1973 388.483 81.4215 388.483 87.8701ZM381.442 104.379C381.442 102.556 380.736 101.269 379.323 100.517C377.91 99.7419 375.791 99.3545 372.966 99.3545H363.703V110.053H373.171C378.685 110.053 381.442 108.161 381.442 104.379ZM380.451 88.5537C380.451 87.0498 379.859 85.9674 378.674 85.3066C377.512 84.623 375.769 84.2812 373.444 84.2812H363.703V93.373H372.248C374.937 93.373 376.976 93.0312 378.366 92.3477C379.756 91.6413 380.451 90.3766 380.451 88.5537ZM431.516 97.0303C431.516 103.205 429.932 108.025 426.765 111.488C423.597 114.952 419.188 116.684 413.537 116.684C410.005 116.684 406.883 115.886 404.172 114.291C401.46 112.696 399.375 110.406 397.917 107.421C396.459 104.436 395.729 100.972 395.729 97.0303C395.729 90.9007 397.302 86.1156 400.446 82.6748C403.591 79.234 408.023 77.5137 413.742 77.5137C419.211 77.5137 423.54 79.2796 426.73 82.8115C429.921 86.3206 431.516 91.0602 431.516 97.0303ZM404.001 97.0303C404.001 105.757 407.225 110.121 413.674 110.121C420.054 110.121 423.244 105.757 423.244 97.0303C423.244 88.3942 420.031 84.0762 413.605 84.0762C410.233 84.0762 407.784 85.1927 406.257 87.4258C404.753 89.6589 404.001 92.8604 404.001 97.0303ZM473.591 87.8701C473.591 92.3363 470.982 95.0365 465.764 95.9707V96.2441C468.68 96.5859 470.913 97.5088 472.463 99.0127C474.012 100.517 474.787 102.465 474.787 104.857C474.787 108.435 473.42 111.192 470.686 113.129C467.974 115.043 464.021 116 458.825 116H440.778V78.1973H458.757C468.646 78.1973 473.591 81.4215 473.591 87.8701ZM466.55 104.379C466.55 102.556 465.843 101.269 464.431 100.517C463.018 99.7419 460.899 99.3545 458.073 99.3545H448.811V110.053H458.278C463.793 110.053 466.55 108.161 466.55 104.379ZM465.559 88.5537C465.559 87.0498 464.966 85.9674 463.781 85.3066C462.619 84.623 460.876 84.2812 458.552 84.2812H448.811V93.373H457.355C460.044 93.373 462.084 93.0312 463.474 92.3477C464.864 91.6413 465.559 90.3766 465.559 88.5537ZM506.745 116L505.139 110.736H504.865C503.042 113.038 501.208 114.61 499.362 115.453C497.517 116.273 495.147 116.684 492.253 116.684C488.539 116.684 485.633 115.681 483.537 113.676C481.464 111.671 480.427 108.834 480.427 105.165C480.427 101.269 481.874 98.3291 484.768 96.3467C487.661 94.3643 492.071 93.2819 497.995 93.0996L504.523 92.8945V90.8779C504.523 88.4626 503.954 86.6624 502.814 85.4775C501.698 84.2699 499.955 83.666 497.585 83.666C495.648 83.666 493.791 83.9508 492.014 84.5205C490.236 85.0902 488.527 85.7624 486.887 86.5371L484.289 80.7949C486.34 79.724 488.584 78.915 491.022 78.3682C493.461 77.7985 495.762 77.5137 497.927 77.5137C502.735 77.5137 506.358 78.5618 508.796 80.6582C511.257 82.7546 512.487 86.0472 512.487 90.5361V116H506.745ZM494.782 110.531C497.699 110.531 500.035 109.722 501.789 108.104C503.566 106.464 504.455 104.174 504.455 101.234V97.9531L499.602 98.1582C495.819 98.2949 493.062 98.9329 491.33 100.072C489.621 101.189 488.767 102.909 488.767 105.233C488.767 106.92 489.268 108.23 490.271 109.164C491.273 110.076 492.777 110.531 494.782 110.531ZM552.102 78.1973V84.4863H539.797V116H531.73V84.4863H519.426V78.1973H552.102ZM567.414 93.3047H576.882C587.432 93.3047 592.707 96.9505 592.707 104.242C592.707 108.093 591.363 111.021 588.674 113.026C585.985 115.009 582.054 116 576.882 116H559.382V78.1973H567.414V93.3047ZM584.641 104.447C584.641 102.556 583.923 101.234 582.487 100.482C581.052 99.7305 579.024 99.3545 576.403 99.3545H567.414V110.053H576.54C579.183 110.053 581.188 109.574 582.556 108.617C583.946 107.66 584.641 106.27 584.641 104.447Z" fill="white"/>
<defs>
<filter id="filter0_dd" x="110" y="109" width="757" height="199" filterUnits="userSpaceOnUse" color-interpolation-filters="sRGB">
<feFlood flood-opacity="0" result="BackgroundImageFix"/>
<feColorMatrix in="SourceAlpha" type="matrix" values="0 0 0 0 0 0 0 0 0 0 0 0 0 0 0 0 0 0 127 0"/>
<feOffset dy="2"/>
<feGaussianBlur stdDeviation="0.5"/>
<feColorMatrix type="matrix" values="0 0 0 0 0 0 0 0 0 0 0 0 0 0 0 0 0 0 0.1 0"/>
<feBlend mode="normal" in2="BackgroundImageFix" result="effect1_dropShadow"/>
<feColorMatrix in="SourceAlpha" type="matrix" values="0 0 0 0 0 0 0 0 0 0 0 0 0 0 0 0 0 0 127 0"/>
<feOffset dy="1"/>
<feColorMatrix type="matrix" values="0 0 0 0 0.901961 0 0 0 0 0.317647 0 0 0 0 0 0 0 0 1 0"/>
<feBlend mode="normal" in2="effect1_dropShadow" result="effect2_dropShadow"/>
<feBlend mode="normal" in="SourceGraphic" in2="effect2_dropShadow" result="shape"/>
</filter>
<filter id="filter1_dd" x="0" y="0" width="746" height="189" filterUnits="userSpaceOnUse" color-interpolation-filters="sRGB">
<feFlood flood-opacity="0" result="BackgroundImageFix"/>
<feColorMatrix in="SourceAlpha" type="matrix" values="0 0 0 0 0 0 0 0 0 0 0 0 0 0 0 0 0 0 127 0"/>
<feOffset dy="2"/>
<feGaussianBlur stdDeviation="0.5"/>
<feColorMatrix type="matrix" values="0 0 0 0 0 0 0 0 0 0 0 0 0 0 0 0 0 0 0.1 0"/>
<feBlend mode="normal" in2="BackgroundImageFix" result="effect1_dropShadow"/>
<feColorMatrix in="SourceAlpha" type="matrix" values="0 0 0 0 0 0 0 0 0 0 0 0 0 0 0 0 0 0 127 0"/>
<feOffset dy="1"/>
<feColorMatrix type="matrix" values="0 0 0 0 0.901961 0 0 0 0 0.317647 0 0 0 0 0 0 0 0 1 0"/>
<feBlend mode="normal" in2="effect1_dropShadow" result="effect2_dropShadow"/>
<feBlend mode="normal" in="SourceGraphic" in2="effect2_dropShadow" result="shape"/>
</filter>
</defs>
</svg>
