<svg width="361" height="91" viewBox="0 0 361 91" fill="none" xmlns="http://www.w3.org/2000/svg">
<path d="M136.276 63.1419L135.306 58.5613H135.071C133.465 60.5775 131.859 61.9478 130.253 62.6721C128.667 63.3768 126.679 63.7291 124.29 63.7291C121.097 63.7291 118.59 62.907 116.769 61.2627C114.967 59.6183 114.066 57.2791 114.066 54.2449C114.066 47.7459 119.266 44.3398 129.666 44.0266L135.13 43.8504V41.8538C135.13 39.3286 134.582 37.4689 133.485 36.2748C132.408 35.0611 130.675 34.4543 128.285 34.4543C125.602 34.4543 122.566 35.2765 119.178 36.9208L117.68 33.1917C119.266 32.3304 120.999 31.6551 122.88 31.1657C124.779 30.6763 126.679 30.4316 128.579 30.4316C132.418 30.4316 135.257 31.2831 137.098 32.9862C138.959 34.6892 139.889 37.42 139.889 41.1784V63.1419H136.276ZM125.259 59.7064C128.295 59.7064 130.675 58.8745 132.398 57.2106C134.141 55.5467 135.013 53.2172 135.013 50.2222V47.3153L130.136 47.5208C126.258 47.6578 123.457 48.2647 121.734 49.3413C120.03 50.3984 119.178 52.0525 119.178 54.3036C119.178 56.0654 119.707 57.4063 120.764 58.3264C121.842 59.2464 123.34 59.7064 125.259 59.7064Z" fill="white"/>
<path d="M157.017 63.1419L144.795 30.9601H150.025L156.958 50.046C158.525 54.5092 159.445 57.4063 159.719 58.7374H159.954C160.17 57.7 160.845 55.5565 161.981 52.307C163.137 49.0379 165.712 41.9223 169.708 30.9601H174.937L162.716 63.1419H157.017Z" fill="white"/>
<path d="M184.984 63.1419H180.107V30.9601H184.984V63.1419ZM179.696 22.2393C179.696 21.1236 179.97 20.3112 180.519 19.8022C181.067 19.2737 181.753 19.0094 182.575 19.0094C183.359 19.0094 184.034 19.2737 184.602 19.8022C185.17 20.3308 185.454 21.1431 185.454 22.2393C185.454 23.3356 185.17 24.1577 184.602 24.7058C184.034 25.2344 183.359 25.4986 182.575 25.4986C181.753 25.4986 181.067 25.2344 180.519 24.7058C179.97 24.1577 179.696 23.3356 179.696 22.2393Z" fill="white"/>
<path d="M215.126 63.1419L214.156 58.5613H213.921C212.315 60.5775 210.709 61.9478 209.103 62.6721C207.517 63.3768 205.529 63.7291 203.14 63.7291C199.947 63.7291 197.44 62.907 195.619 61.2627C193.817 59.6183 192.916 57.2791 192.916 54.2449C192.916 47.7459 198.116 44.3398 208.516 44.0266L213.98 43.8504V41.8538C213.98 39.3286 213.432 37.4689 212.335 36.2748C211.258 35.0611 209.524 34.4543 207.135 34.4543C204.452 34.4543 201.416 35.2765 198.028 36.9208L196.53 33.1917C198.116 32.3304 199.849 31.6551 201.729 31.1657C203.629 30.6763 205.529 30.4316 207.429 30.4316C211.267 30.4316 214.107 31.2831 215.948 32.9862C217.809 34.6892 218.739 37.42 218.739 41.1784V63.1419H215.126ZM204.109 59.7064C207.145 59.7064 209.524 58.8745 211.248 57.2106C212.991 55.5467 213.863 53.2172 213.863 50.2222V47.3153L208.986 47.5208C205.108 47.6578 202.307 48.2647 200.584 49.3413C198.88 50.3984 198.028 52.0525 198.028 54.3036C198.028 56.0654 198.557 57.4063 199.614 58.3264C200.691 59.2464 202.19 59.7064 204.109 59.7064Z" fill="white"/>
<path d="M249.586 54.3624C249.586 57.3574 248.47 59.6673 246.237 61.292C244.004 62.9168 240.87 63.7291 236.836 63.7291C232.566 63.7291 229.237 63.0538 226.847 61.7031V57.1812C228.395 57.9642 230.05 58.5808 231.812 59.0311C233.595 59.4813 235.308 59.7064 236.953 59.7064C239.499 59.7064 241.458 59.3051 242.829 58.5025C244.2 57.6804 244.885 56.4374 244.885 54.7735C244.885 53.5206 244.337 52.4538 243.24 51.5729C242.163 50.6724 240.048 49.6154 236.895 48.4017C233.898 47.2859 231.763 46.3169 230.49 45.4948C229.237 44.653 228.297 43.7036 227.67 42.6466C227.063 41.5895 226.759 40.3269 226.759 38.8588C226.759 36.2357 227.827 34.1705 229.962 32.6632C232.096 31.1363 235.024 30.3729 238.745 30.3729C242.212 30.3729 245.6 31.0776 248.91 32.487L247.177 36.451C243.945 35.1199 241.017 34.4543 238.393 34.4543C236.082 34.4543 234.339 34.8165 233.164 35.5407C231.989 36.265 231.401 37.2634 231.401 38.5358C231.401 39.3971 231.616 40.1311 232.047 40.738C232.498 41.3448 233.213 41.9223 234.192 42.4704C235.171 43.0185 237.051 43.8113 239.832 44.8488C243.652 46.2386 246.227 47.6383 247.559 49.0477C248.91 50.4571 249.586 52.2287 249.586 54.3624Z" fill="white"/>
<path d="M277.348 63.1419L276.378 58.5613H276.143C274.537 60.5775 272.931 61.9478 271.325 62.6721C269.739 63.3768 267.751 63.7291 265.362 63.7291C262.169 63.7291 259.662 62.907 257.841 61.2627C256.039 59.6183 255.138 57.2791 255.138 54.2449C255.138 47.7459 260.338 44.3398 270.738 44.0266L276.202 43.8504V41.8538C276.202 39.3286 275.654 37.4689 274.557 36.2748C273.48 35.0611 271.746 34.4543 269.357 34.4543C266.674 34.4543 263.638 35.2765 260.25 36.9208L258.752 33.1917C260.338 32.3304 262.071 31.6551 263.952 31.1657C265.851 30.6763 267.751 30.4316 269.651 30.4316C273.49 30.4316 276.329 31.2831 278.17 32.9862C280.031 34.6892 280.961 37.42 280.961 41.1784V63.1419H277.348ZM266.331 59.7064C269.367 59.7064 271.746 58.8745 273.47 57.2106C275.213 55.5467 276.085 53.2172 276.085 50.2222V47.3153L271.208 47.5208C267.33 47.6578 264.529 48.2647 262.806 49.3413C261.102 50.3984 260.25 52.0525 260.25 54.3036C260.25 56.0654 260.779 57.4063 261.836 58.3264C262.914 59.2464 264.412 59.7064 266.331 59.7064Z" fill="white"/>
<path d="M295.915 63.1419H291.038V17.4532H295.915V63.1419Z" fill="white"/>
<path d="M319.857 63.7291C315.098 63.7291 311.338 62.2806 308.576 59.3834C305.834 56.4863 304.464 52.4636 304.464 47.3153C304.464 42.1278 305.737 38.0072 308.283 34.9535C310.848 31.8997 314.285 30.3729 318.594 30.3729C322.629 30.3729 325.821 31.704 328.171 34.3662C330.522 37.0089 331.697 40.5031 331.697 44.8488V47.9319H309.516C309.614 51.7099 310.564 54.5777 312.366 56.5352C314.188 58.4928 316.743 59.4715 320.034 59.4715C323.5 59.4715 326.928 58.7472 330.316 57.2987V61.6444C328.592 62.3882 326.957 62.9168 325.41 63.23C323.882 63.5628 322.031 63.7291 319.857 63.7291ZM318.535 34.4543C315.95 34.4543 313.884 35.2961 312.337 36.9795C310.809 38.663 309.908 40.9925 309.634 43.9679H326.467C326.467 40.8946 325.782 38.5455 324.411 36.9208C323.04 35.2765 321.082 34.4543 318.535 34.4543Z" fill="white"/>
<path d="M360.81 54.3624C360.81 57.3574 359.694 59.6673 357.461 61.292C355.228 62.9168 352.095 63.7291 348.06 63.7291C343.791 63.7291 340.461 63.0538 338.072 61.7031V57.1812C339.619 57.9642 341.274 58.5808 343.036 59.0311C344.819 59.4813 346.532 59.7064 348.178 59.7064C350.724 59.7064 352.682 59.3051 354.053 58.5025C355.424 57.6804 356.11 56.4374 356.11 54.7735C356.11 53.5206 355.561 52.4538 354.464 51.5729C353.387 50.6724 351.272 49.6154 348.119 48.4017C345.122 47.2859 342.988 46.3169 341.714 45.4948C340.461 44.653 339.521 43.7036 338.894 42.6466C338.287 41.5895 337.984 40.3269 337.984 38.8588C337.984 36.2357 339.051 34.1705 341.186 32.6632C343.32 31.1363 346.248 30.3729 349.97 30.3729C353.436 30.3729 356.824 31.0776 360.134 32.487L358.401 36.451C355.17 35.1199 352.242 34.4543 349.617 34.4543C347.306 34.4543 345.563 34.8165 344.388 35.5407C343.213 36.265 342.625 37.2634 342.625 38.5358C342.625 39.3971 342.841 40.1311 343.272 40.738C343.722 41.3448 344.437 41.9223 345.416 42.4704C346.395 43.0185 348.276 43.8113 351.057 44.8488C354.876 46.2386 357.451 47.6383 358.783 49.0477C360.134 50.4571 360.81 52.2287 360.81 54.3624Z" fill="white"/>
<path fill-rule="evenodd" clip-rule="evenodd" d="M69.1904 60.2044C69.1904 71.7924 59.8196 81.1825 48.2557 81.1825H41.9925C30.4287 81.1825 21.0579 71.7924 21.0579 60.2044V39.0187C21.0579 27.4307 30.4287 18.0405 41.9925 18.0405H48.2557C59.8196 18.0405 69.1904 27.4307 69.1904 39.0187V60.2044ZM86.7017 27.0609H90.2485V14.8444C90.2485 5.74893 84.3853 0 75.2853 0H14.9632C5.86314 0 0 5.74893 0 14.8444V27.0609H3.54676C10.171 27.0609 15.0414 32.7917 15.0414 39.0999V51.1029C15.0414 57.4111 10.171 63.142 3.54676 63.142H0V75.3555C0 84.4539 5.86314 90.2029 14.9632 90.2029H75.2853C84.3853 90.2029 90.2485 84.4539 90.2485 75.3555V63.142H86.7017C80.0775 63.142 75.207 57.4111 75.207 51.1029V39.0999C75.207 32.7917 80.0775 27.0609 86.7017 27.0609Z" fill="white"/>
<path fill-rule="evenodd" clip-rule="evenodd" d="M60.1646 51.1028C60.1646 57.4109 53.5765 63.1418 46.9462 63.1418H43.2972C36.6699 63.1418 30.0818 57.4109 30.0818 51.1028V39.0998C30.0818 32.7916 36.6699 27.0607 43.2972 27.0607H46.9462C53.5765 27.0607 60.1646 32.7916 60.1646 39.0998V51.1028ZM48.2602 21.0471H41.6089C31.9613 21.0471 24.0646 29.8449 24.0646 39.4906V59.7321C24.0646 69.3778 31.9613 78.1756 41.6089 78.1756H48.2602C57.9077 78.1756 66.1805 69.3778 66.1805 59.7321V39.4906C66.1805 29.8449 57.9077 21.0471 48.2602 21.0471Z" fill="white"/>
<path fill-rule="evenodd" clip-rule="evenodd" d="M46.5182 56.8712H46.149C41.111 56.8712 36.3862 53.9596 36.3862 48.7795V43.8866C36.3862 43.8866 36.3796 42.0947 34.7245 42.0947C33.0759 42.0947 33.0891 43.8866 33.0891 43.8866V48.7795C33.0891 55.7516 39.2976 60.1352 46.149 60.1352H46.5182C46.5182 60.1352 48.1305 60.1091 48.1305 58.5358C48.1305 56.9528 46.5182 56.8712 46.5182 56.8712Z" fill="white"/>
</svg>
