<svg width="866" height="308" viewBox="0 0 866 308" fill="none" xmlns="http://www.w3.org/2000/svg">
<path opacity="0.6" d="M20 40C20 28.9543 28.9543 20 40 20H755C766.046 20 775 28.9543 775 40V196C775 207.046 766.046 216 755 216H40C28.9543 216 20 207.046 20 196V40Z" fill="white"/>
<path opacity="0.2" d="M50 70C50 58.9543 58.9543 50 70 50H785C796.046 50 805 58.9543 805 70V226C805 237.046 796.046 246 785 246H70C58.9543 246 50 237.046 50 226V70Z" fill="white"/>
<path opacity="0.1" d="M80 98C80 86.9543 88.9543 78 100 78H815C826.046 78 835 86.9543 835 98V254C835 265.046 826.046 274 815 274H100C88.9543 274 80 265.046 80 254V98Z" fill="white"/>
<g opacity="0.03" filter="url(#filter0_dd)">
<path d="M110 129C110 117.954 118.954 109 130 109H845C856.046 109 865 117.954 865 129V285C865 296.046 856.046 305 845 305H130C118.954 305 110 296.046 110 285V129Z" fill="white"/>
</g>
<path d="M0 20C0 8.95431 8.9543 0 20 0H724C735.046 0 744 8.95431 744 20V166C744 177.046 735.046 186 724 186H20C8.95429 186 0 177.046 0 166V20Z" fill="white"/>
<path d="M207.139 117H198.936V74.0361H176.89V117H168.721V67.0293H207.139V117ZM253.008 98.0303C253.008 104.205 251.424 109.025 248.257 112.488C245.09 115.952 240.68 117.684 235.029 117.684C231.497 117.684 228.376 116.886 225.664 115.291C222.952 113.696 220.868 111.406 219.409 108.421C217.951 105.436 217.222 101.972 217.222 98.0303C217.222 91.9007 218.794 87.1156 221.938 83.6748C225.083 80.234 229.515 78.5137 235.234 78.5137C240.703 78.5137 245.033 80.2796 248.223 83.8115C251.413 87.3206 253.008 92.0602 253.008 98.0303ZM225.493 98.0303C225.493 106.757 228.717 111.121 235.166 111.121C241.546 111.121 244.736 106.757 244.736 98.0303C244.736 89.3942 241.523 85.0762 235.098 85.0762C231.725 85.0762 229.276 86.1927 227.749 88.4258C226.245 90.6589 225.493 93.8604 225.493 98.0303ZM298.535 130.364H291.05V117H265.142V130.364H257.725V110.779H260.801C263.49 106.928 265.62 102.28 267.192 96.834C268.787 91.3652 269.733 85.4863 270.029 79.1973H292.998V110.779H298.535V130.364ZM285.103 110.779V85.3496H276.968C276.535 90.0436 275.623 94.6693 274.233 99.2266C272.866 103.784 271.191 107.635 269.209 110.779H285.103ZM322.051 117.684C316.172 117.684 311.569 115.975 308.242 112.557C304.938 109.116 303.286 104.388 303.286 98.3721C303.286 92.1969 304.824 87.3434 307.9 83.8115C310.977 80.2796 315.203 78.5137 320.581 78.5137C325.571 78.5137 329.513 80.029 332.407 83.0596C335.301 86.0902 336.748 90.2601 336.748 95.5693V99.9102H311.558C311.672 103.579 312.663 106.404 314.531 108.387C316.4 110.346 319.032 111.326 322.427 111.326C324.66 111.326 326.733 111.121 328.647 110.711C330.584 110.278 332.658 109.572 334.868 108.592V115.12C332.909 116.054 330.926 116.715 328.921 117.103C326.916 117.49 324.626 117.684 322.051 117.684ZM320.581 84.5977C318.029 84.5977 315.978 85.4066 314.429 87.0244C312.902 88.6423 311.991 91.0007 311.694 94.0996H328.853C328.807 90.9779 328.055 88.6195 326.597 87.0244C325.138 85.4066 323.133 84.5977 320.581 84.5977ZM376.943 117H368.843V85.4863H358.418C357.78 93.5983 356.914 99.9329 355.82 104.49C354.749 109.048 353.337 112.374 351.582 114.471C349.85 116.567 347.594 117.615 344.814 117.615C343.06 117.615 341.59 117.365 340.405 116.863V110.574C341.248 110.893 342.091 111.053 342.935 111.053C345.259 111.053 347.082 108.444 348.403 103.226C349.748 97.9847 350.796 89.9753 351.548 79.1973H376.943V117ZM396.152 79.1973V98.5771C396.152 100.833 395.97 104.148 395.605 108.523L414.575 79.1973H424.385V117H416.66V97.9619C416.66 96.9137 416.717 95.2161 416.831 92.8691C416.968 90.5221 417.082 88.8132 417.173 87.7422L398.271 117H388.462V79.1973H396.152ZM464.238 79.1973V85.4863H451.934V117H443.867V85.4863H431.562V79.1973H464.238ZM479.551 94.3047H489.019C499.569 94.3047 504.844 97.9505 504.844 105.242C504.844 109.093 503.499 112.021 500.811 114.026C498.122 116.009 494.191 117 489.019 117H471.519V79.1973H479.551V94.3047ZM496.777 105.447C496.777 103.556 496.06 102.234 494.624 101.482C493.188 100.73 491.16 100.354 488.54 100.354H479.551V111.053H488.677C491.32 111.053 493.325 110.574 494.692 109.617C496.082 108.66 496.777 107.27 496.777 105.447ZM529.009 117.684C523.289 117.684 518.937 116.02 515.952 112.693C512.99 109.344 511.509 104.547 511.509 98.3037C511.509 91.9463 513.058 87.0586 516.157 83.6406C519.279 80.2227 523.779 78.5137 529.658 78.5137C533.646 78.5137 537.235 79.2542 540.425 80.7354L537.998 87.1953C534.603 85.8737 531.8 85.2129 529.59 85.2129C523.05 85.2129 519.78 89.5537 519.78 98.2354C519.78 102.474 520.589 105.664 522.207 107.806C523.848 109.925 526.24 110.984 529.385 110.984C532.962 110.984 536.346 110.096 539.536 108.318V115.325C538.101 116.168 536.562 116.772 534.922 117.137C533.304 117.501 531.333 117.684 529.009 117.684ZM552.285 117H543.296L553.823 101.517C551.271 100.787 549.266 99.4886 547.808 97.6201C546.349 95.7288 545.62 93.3932 545.62 90.6133C545.62 87.0358 546.896 84.2445 549.448 82.2393C552 80.2113 555.487 79.1973 559.907 79.1973H577.134V117H569.067V102.439H561.445L552.285 117ZM553.447 90.6816C553.447 92.6185 554.176 94.0768 555.635 95.0566C557.116 96.0137 559.098 96.4922 561.582 96.4922H569.067V85.2812H560.317C558.13 85.2812 556.432 85.7484 555.225 86.6826C554.04 87.6169 553.447 88.9499 553.447 90.6816Z" fill="#09125E"/>
<defs>
<filter id="filter0_dd" x="109" y="109" width="757" height="199" filterUnits="userSpaceOnUse" color-interpolation-filters="sRGB">
<feFlood flood-opacity="0" result="BackgroundImageFix"/>
<feColorMatrix in="SourceAlpha" type="matrix" values="0 0 0 0 0 0 0 0 0 0 0 0 0 0 0 0 0 0 127 0"/>
<feOffset dy="2"/>
<feGaussianBlur stdDeviation="0.5"/>
<feColorMatrix type="matrix" values="0 0 0 0 0 0 0 0 0 0 0 0 0 0 0 0 0 0 0.1 0"/>
<feBlend mode="normal" in2="BackgroundImageFix" result="effect1_dropShadow"/>
<feColorMatrix in="SourceAlpha" type="matrix" values="0 0 0 0 0 0 0 0 0 0 0 0 0 0 0 0 0 0 127 0"/>
<feOffset dy="1"/>
<feColorMatrix type="matrix" values="0 0 0 0 0.901961 0 0 0 0 0.317647 0 0 0 0 0 0 0 0 1 0"/>
<feBlend mode="normal" in2="effect1_dropShadow" result="effect2_dropShadow"/>
<feBlend mode="normal" in="SourceGraphic" in2="effect2_dropShadow" result="shape"/>
</filter>
</defs>
</svg>
