<svg width="867" height="308" viewBox="0 0 867 308" fill="none" xmlns="http://www.w3.org/2000/svg">
<path d="M21 40C21 28.9543 29.9543 20 41 20H756C767.046 20 776 28.9543 776 40V196C776 207.046 767.046 216 756 216H41C29.9543 216 21 207.046 21 196V40Z" fill="white"/>
<path opacity="0.2" d="M51 70C51 58.9543 59.9543 50 71 50H786C797.046 50 806 58.9543 806 70V226C806 237.046 797.046 246 786 246H71C59.9543 246 51 237.046 51 226V70Z" fill="white"/>
<path opacity="0.1" d="M81 98C81 86.9543 89.9543 78 101 78H816C827.046 78 836 86.9543 836 98V254C836 265.046 827.046 274 816 274H101C89.9543 274 81 265.046 81 254V98Z" fill="white"/>
<g opacity="0.03" filter="url(#filter0_dd)">
<path d="M111 129C111 117.954 119.954 109 131 109H846C857.046 109 866 117.954 866 129V285C866 296.046 857.046 305 846 305H131C119.954 305 111 296.046 111 285V129Z" fill="white"/>
</g>
<g filter="url(#filter1_dd)">
<path d="M1 20C1 8.95431 9.9543 0 21 0H725C736.046 0 745 8.95431 745 20V166C745 177.046 736.046 186 725 186H21C9.95429 186 1 177.046 1 166V20Z" fill="#F57C00"/>
</g>
<path d="M295.639 66.0293L279.882 101.576C277.945 105.928 276.168 109.084 274.55 111.044C272.932 112.981 271.052 114.405 268.91 115.316C266.791 116.228 264.216 116.684 261.186 116.684C258.542 116.684 256.093 116.342 253.837 115.658V108.31C256.07 109.198 258.406 109.643 260.844 109.643C262.917 109.643 264.649 109.141 266.039 108.139C267.452 107.113 268.728 105.279 269.867 102.636L251.444 66.0293H260.263L272.465 91.083C273.559 93.4528 274.231 95.0365 274.481 95.834H274.823C274.96 95.2415 275.302 94.2959 275.849 92.9971L287.094 66.0293H295.639ZM309.755 93.3047C313.424 93.3047 316.124 92.9059 317.855 92.1084C319.587 91.2881 320.453 90.0348 320.453 88.3486C320.453 85.2725 317.719 83.7344 312.25 83.7344C308.604 83.7344 304.879 84.5547 301.073 86.1953L298.476 80.2139C302.873 78.4137 307.727 77.5137 313.036 77.5137C317.73 77.5137 321.376 78.3796 323.974 80.1113C326.571 81.8203 327.87 84.2812 327.87 87.4941C327.87 91.7324 325.443 94.5124 320.59 95.834V96.1074C323.62 96.9277 325.785 98.1012 327.084 99.6279C328.406 101.155 329.066 103.046 329.066 105.302C329.066 108.765 327.54 111.534 324.486 113.607C321.456 115.658 317.217 116.684 311.771 116.684C305.824 116.684 301.278 115.897 298.134 114.325V107.387C302.304 109.346 306.622 110.326 311.088 110.326C314.301 110.326 316.773 109.882 318.505 108.993C320.259 108.082 321.137 106.703 321.137 104.857C321.137 102.966 320.259 101.576 318.505 100.688C316.75 99.7988 314.039 99.3545 310.37 99.3545H305.756V93.3047H309.755ZM345.814 78.1973V93.373H363.622V78.1973H371.654V116H363.622V99.6963H345.814V116H337.782V78.1973H345.814ZM406.825 116L405.219 110.736H404.945C403.122 113.038 401.288 114.61 399.442 115.453C397.597 116.273 395.227 116.684 392.333 116.684C388.619 116.684 385.714 115.681 383.617 113.676C381.544 111.671 380.507 108.834 380.507 105.165C380.507 101.269 381.954 98.3291 384.848 96.3467C387.742 94.3643 392.151 93.2819 398.075 93.0996L404.604 92.8945V90.8779C404.604 88.4626 404.034 86.6624 402.895 85.4775C401.778 84.2699 400.035 83.666 397.665 83.666C395.728 83.666 393.871 83.9508 392.094 84.5205C390.316 85.0902 388.607 85.7624 386.967 86.5371L384.369 80.7949C386.42 79.724 388.664 78.915 391.103 78.3682C393.541 77.7985 395.842 77.5137 398.007 77.5137C402.815 77.5137 406.438 78.5618 408.876 80.6582C411.337 82.7546 412.567 86.0472 412.567 90.5361V116H406.825ZM394.862 110.531C397.779 110.531 400.115 109.722 401.869 108.104C403.646 106.464 404.535 104.174 404.535 101.234V97.9531L399.682 98.1582C395.899 98.2949 393.142 98.9329 391.41 100.072C389.701 101.189 388.847 102.909 388.847 105.233C388.847 106.92 389.348 108.23 390.351 109.164C391.353 110.076 392.857 110.531 394.862 110.531ZM452.182 78.1973V84.4863H439.877V116H431.811V84.4863H419.506V78.1973H452.182ZM467.494 93.3047H476.962C487.512 93.3047 492.787 96.9505 492.787 104.242C492.787 108.093 491.443 111.021 488.754 113.026C486.065 115.009 482.134 116 476.962 116H459.462V78.1973H467.494V93.3047ZM484.721 104.447C484.721 102.556 484.003 101.234 482.567 100.482C481.132 99.7305 479.104 99.3545 476.483 99.3545H467.494V110.053H476.62C479.263 110.053 481.269 109.574 482.636 108.617C484.026 107.66 484.721 106.27 484.721 104.447Z" fill="white"/>
<defs>
<filter id="filter0_dd" x="110" y="109" width="757" height="199" filterUnits="userSpaceOnUse" color-interpolation-filters="sRGB">
<feFlood flood-opacity="0" result="BackgroundImageFix"/>
<feColorMatrix in="SourceAlpha" type="matrix" values="0 0 0 0 0 0 0 0 0 0 0 0 0 0 0 0 0 0 127 0"/>
<feOffset dy="2"/>
<feGaussianBlur stdDeviation="0.5"/>
<feColorMatrix type="matrix" values="0 0 0 0 0 0 0 0 0 0 0 0 0 0 0 0 0 0 0.1 0"/>
<feBlend mode="normal" in2="BackgroundImageFix" result="effect1_dropShadow"/>
<feColorMatrix in="SourceAlpha" type="matrix" values="0 0 0 0 0 0 0 0 0 0 0 0 0 0 0 0 0 0 127 0"/>
<feOffset dy="1"/>
<feColorMatrix type="matrix" values="0 0 0 0 0.901961 0 0 0 0 0.317647 0 0 0 0 0 0 0 0 1 0"/>
<feBlend mode="normal" in2="effect1_dropShadow" result="effect2_dropShadow"/>
<feBlend mode="normal" in="SourceGraphic" in2="effect2_dropShadow" result="shape"/>
</filter>
<filter id="filter1_dd" x="0" y="0" width="746" height="189" filterUnits="userSpaceOnUse" color-interpolation-filters="sRGB">
<feFlood flood-opacity="0" result="BackgroundImageFix"/>
<feColorMatrix in="SourceAlpha" type="matrix" values="0 0 0 0 0 0 0 0 0 0 0 0 0 0 0 0 0 0 127 0"/>
<feOffset dy="2"/>
<feGaussianBlur stdDeviation="0.5"/>
<feColorMatrix type="matrix" values="0 0 0 0 0 0 0 0 0 0 0 0 0 0 0 0 0 0 0.1 0"/>
<feBlend mode="normal" in2="BackgroundImageFix" result="effect1_dropShadow"/>
<feColorMatrix in="SourceAlpha" type="matrix" values="0 0 0 0 0 0 0 0 0 0 0 0 0 0 0 0 0 0 127 0"/>
<feOffset dy="1"/>
<feColorMatrix type="matrix" values="0 0 0 0 0.901961 0 0 0 0 0.317647 0 0 0 0 0 0 0 0 1 0"/>
<feBlend mode="normal" in2="effect1_dropShadow" result="effect2_dropShadow"/>
<feBlend mode="normal" in="SourceGraphic" in2="effect2_dropShadow" result="shape"/>
</filter>
</defs>
</svg>
